<svg xmlns="http://www.w3.org/2000/svg" data-name="Layer 1" viewBox="0 0 32 40" x="0px" y="0px"><title>Village</title><path d="M21.59,10.68a.51.51,0,0,0-.27-.27.65.65,0,0,0-.19,0H14.82a.5.5,0,0,0-.5.5.5.5,0,0,0,.5.5h5.1l-9.4,9.4a.5.5,0,0,0,0,.71.5.5,0,0,0,.35.15.51.51,0,0,0,.36-.15l9.4-9.4v5.1a.5.5,0,0,0,.5.5.5.5,0,0,0,.5-.5V10.87A.65.65,0,0,0,21.59,10.68Z"/><text x="0" y="47" fill="#000000" font-size="5px" font-weight="bold" font-family="'Helvetica Neue', Helvetica, Arial-Unicode, Arial, Sans-serif">Created by Qi studio</text><text x="0" y="52" fill="#000000" font-size="5px" font-weight="bold" font-family="'Helvetica Neue', Helvetica, Arial-Unicode, Arial, Sans-serif">from the Noun Project</text></svg>