<svg xmlns="http://www.w3.org/2000/svg" viewBox="0 0 32 40" x="0px" y="0px"><title>mail</title><path d="M28.988,7.938a.979.979,0,0,0-.031-.228c-.006-.02-.019-.035-.026-.054a.952.952,0,0,0-.057-.117.98.98,0,0,0-.128-.19.957.957,0,0,0-.089-.091.982.982,0,0,0-.2-.133.961.961,0,0,0-.1-.053A.988.988,0,0,0,28,7H4a.988.988,0,0,0-.356.072.961.961,0,0,0-.1.053.982.982,0,0,0-.2.133.957.957,0,0,0-.089.091.98.98,0,0,0-.128.19.952.952,0,0,0-.057.117c-.007.019-.02.034-.026.054a.979.979,0,0,0-.031.228C3.011,7.96,3,7.978,3,8V24a1,1,0,0,0,1,1H28a1,1,0,0,0,1-1V8C29,7.978,28.989,7.96,28.988,7.938ZM24.7,9,16,14.8,7.3,9ZM5,23V9.868l10.445,6.964a1,1,0,0,0,1.109,0L27,9.868V23Z"/><text x="0" y="47" fill="#000000" font-size="5px" font-weight="bold" font-family="'Helvetica Neue', Helvetica, Arial-Unicode, Arial, Sans-serif">Created by Letseate</text><text x="0" y="52" fill="#000000" font-size="5px" font-weight="bold" font-family="'Helvetica Neue', Helvetica, Arial-Unicode, Arial, Sans-serif">from the Noun Project</text></svg>