<?xml version="1.0" encoding="utf-8"?>
<!-- Generator: Adobe Illustrator 23.1.1, SVG Export Plug-In . SVG Version: 6.00 Build 0)  -->
<svg version="1.1" id="Calque_1" xmlns="http://www.w3.org/2000/svg" xmlns:xlink="http://www.w3.org/1999/xlink" x="0px" y="0px"
	 viewBox="0 0 23.2 22.1" style="enable-background:new 0 0 23.2 22.1;" xml:space="preserve">
<style type="text/css">
	.st0{fill:none;stroke:#FFFFFF;stroke-width:2.3;stroke-linejoin:round;}
</style>
<g id="Icon_feather-trash-2" transform="translate(-4.5 -1.85)">
	<path id="Tracé_15" class="st0" d="M7.3,7.1h17.5"/>
	<path id="Tracé_16" class="st0" d="M22.9,7.1v13.6c0,1.1-0.9,1.9-1.9,1.9c0,0,0,0,0,0h-9.7c-1.1,0-1.9-0.9-1.9-1.9c0,0,0,0,0,0
		V7.1 M12.2,7.1V5.1c0-1.1,0.9-1.9,1.9-1.9l0,0H18c1.1,0,1.9,0.9,1.9,1.9l0,0v1.9"/>
	<path id="Tracé_17" class="st0" d="M14.2,11.9v5.8"/>
	<path id="Tracé_18" class="st0" d="M18,11.9v5.8"/>
</g>
</svg>
